<svg width="1922" height="1082" viewBox="0 0 1922 1082" fill="none" xmlns="http://www.w3.org/2000/svg">
<path fill-rule="evenodd" clip-rule="evenodd" d="M1920.69 518.975L1920.65 518.673L1920.65 518.262L1920.66 518.574L1920.69 518.975ZM1921.41 526.623C1921.49 526.469 1921.33 523.767 1920.69 518.975C1921.01 524.38 1921.32 526.776 1921.41 526.623ZM1920 480.5C1919.85 498.727 1920.24 510.99 1920.65 518.262C1920.6 456.086 1920.42 431.161 1920.04 476.146C1920.02 477.531 1920.01 478.982 1920 480.5Z" fill="#F6EBF4"/>
<path d="M941.5 0H0.000366211V1081.5H1920C1920.33 921.255 1920.75 644.379 1920.65 518.673L1920.65 518.262C1920.24 510.99 1919.85 498.727 1920 480.5C1920.01 478.982 1920.02 477.531 1920.04 476.146C1913.36 261.664 1847.99 163.981 1533 154.5C1174.2 143.7 973 82.3333 941.5 0Z" fill="#F6EBF4"/>
</svg>
